<?xml version="1.0" encoding="utf-8"?>
<!-- Generator: Adobe Illustrator 23.0.4, SVG Export Plug-In . SVG Version: 6.00 Build 0)  -->
<svg version="1.1" id="Layer_2" xmlns="http://www.w3.org/2000/svg" xmlns:xlink="http://www.w3.org/1999/xlink" x="0px" y="0px"
	 viewBox="0 0 192 192" enable-background="new 0 0 192 192" xml:space="preserve">
<path fill="#455A65" d="M59.4,26.9L59.4,26.9c8.8-8.8,23-8.8,31.8,0l53,53c8.8,8.8,8.8,23,0,31.8l0,0c-8.8,8.8-23,8.8-31.8,0l-53-53
	C50.6,49.9,50.6,35.7,59.4,26.9z"/>
<path fill="#F3923B" d="M59.4,165L59.4,165c-8.8-8.8-8.8-23,0-31.8l53-53c8.8-8.8,23-8.8,31.8,0l0,0c8.8,8.8,8.8,23,0,31.8l-53,53
	C82.4,173.8,68.2,173.8,59.4,165z"/>
</svg>
